HIERARCHY
ROOT Hips
{
	OFFSET 0.000000 0.000000 0.000000
	CHANNELS 6 Xposition Yposition Zposition Zrotation Yrotation Xrotation 
	JOINT LHipJoint
	{
		OFFSET 0.000000 0.000000 0.000000
		CHANNELS 3 Zrotation Yrotation Xrotation
		JOINT LeftUpLeg
		{
			OFFSET 1.363060 -1.794630 0.839290
			CHANNELS 3 Zrotation Yrotation Xrotation
			JOINT LeftLeg
			{
				OFFSET 2.448110 -6.726130 0.000000
				CHANNELS 3 Zrotation Yrotation Xrotation
				JOINT LeftFoot
				{
					OFFSET 2.562200 -7.039590 0.000000
					CHANNELS 3 Zrotation Yrotation Xrotation
					JOINT LeftToeBase
					{
						OFFSET 0.157640 -0.433110 2.322550
						CHANNELS 3 Zrotation Yrotation Xrotation
						End Site
						{
							OFFSET 0.000000 0.000000 0.000000
						}
					}
				}
			}
		}
	}
	JOINT RHipJoint
	{
		OFFSET 0.000000 0.000000 0.000000
		CHANNELS 3 Zrotation Yrotation Xrotation
		JOINT RightUpLeg
		{
			OFFSET -1.305520 -1.794630 0.839290
			CHANNELS 3 Zrotation Yrotation Xrotation
			JOINT RightLeg
			{
				OFFSET -2.542530 -6.985550 0.000000
				CHANNELS 3 Zrotation Yrotation Xrotation
				JOINT RightFoot
				{
					OFFSET -2.568260 -7.056230 0.000000
					CHANNELS 3 Zrotation Yrotation Xrotation
					JOINT RightToeBase
					{
						OFFSET -0.164730 -0.452590 2.363150
						CHANNELS 3 Zrotation Yrotation Xrotation
						End Site
						{
							OFFSET 0.000000 0.000000 0.000000
						}
					}
				}
			}
		}
	}
}
MOTION
Frames: 19
Frame Time: 0.008333
8.135784 14.721810 1.790708 82.790717 -83.042703 -35.448471 -9.333718 1.026865 5.542891 -10.145242 -12.063905 -60.312587 -0.886319 2.207490 60.824984 4.226095 13.644380 -30.970392 -5.750200 -0.000000 -63.814000 11.100967 0.832180 4.553730 1.000392 1.923447 -61.711363 0.135601 -3.883764 66.738249 -4.046931 -10.039431 -34.421845 4.889301 -0.000000 -71.246300
7.942368 14.970920 1.760681 83.867454 -83.205568 -38.674725 -9.392485 1.373388 5.178638 -10.518142 -10.615891 -55.409523 -1.099179 1.877386 56.931631 3.832001 12.989010 -28.166626 -4.853200 0.000000 -66.600000 11.178416 0.536676 4.101119 1.443901 1.025986 -56.491148 0.459577 -3.431754 62.280458 -3.769855 -9.429525 -32.449371 4.311900 0.000000 -72.597300
7.741102 15.230865 1.732370 84.608285 -83.394697 -41.615160 -9.468476 1.727615 4.803998 -10.737519 -9.015969 -50.500671 -1.259647 1.568279 52.875982 3.371817 12.238254 -24.600972 -3.787200 -0.000001 -70.124000 11.260610 0.215997 3.631480 1.868342 -0.045403 -51.180505 0.731949 -2.981113 57.532449 -3.403490 -8.680580 -29.681843 3.564500 -0.000000 -74.777900
7.532171 15.500184 1.706241 84.955618 -83.615051 -44.172973 -9.569628 2.084651 4.431471 -10.763152 -7.292947 -45.665548 -1.356550 1.291990 48.695478 2.866692 11.430167 -20.208528 -2.596500 -0.000000 -74.245900 11.345944 -0.133362 3.154624 2.255086 -1.281418 -45.861466 0.939035 -2.545039 52.537000 -2.955908 -7.833558 -26.000529 2.681100 0.000000 -77.822099
7.316402 15.777182 1.682441 84.907408 -83.868835 -46.309919 -9.700363 2.441021 4.072721 -10.572600 -5.490443 -40.979099 -1.383904 1.061096 44.441586 2.351218 10.601618 -14.975460 -1.350200 -0.000000 -78.627699 11.435149 -0.512577 2.681314 2.580717 -2.658492 -40.623908 1.070777 -2.141614 47.365209 -2.449599 -6.938483 -21.330775 1.722000 0.000000 -81.601800
7.094708 16.059651 1.661005 84.486128 -84.156536 -48.004858 -9.861365 2.792090 3.741048 -10.159866 -3.669445 -36.520984 -1.342466 0.885254 40.182363 1.871302 9.779340 -8.949817 -0.135400 -0.000000 -82.821100 11.528858 -0.920864 2.225207 2.826870 -4.134939 -35.574945 1.124440 -1.791876 42.120570 -1.922365 -6.040224 -15.656514 0.767900 -0.000000 -85.814800
6.868223 16.345056 1.641742 83.758869 -84.473156 -49.280571 -10.047028 3.131257 3.450380 -9.543869 -1.906728 -32.365402 -1.241532 0.766699 35.996064 1.478201 8.978901 -2.257114 0.951700 0.000000 -86.364400 11.627734 -1.351700 1.800897 2.979264 -5.657711 -30.831370 1.107518 -1.514969 36.938998 -1.423675 -5.159910 -9.042167 -0.086800 0.000000 -90.022000
6.637943 16.630576 1.624456 82.824569 -84.809481 -50.186407 -10.246519 3.448496 3.216676 -8.767383 -0.292834 -28.582137 -1.097773 0.696886 31.972386 1.216441 8.206256 4.883718 1.823800 -0.000000 -88.820000 11.730412 -1.791075 1.424396 3.033975 -7.165451 -26.517762 1.037971 -1.320509 31.984239 -1.007179 -4.284735 -1.655942 -0.739300 0.000001 -93.698300
6.405214 16.913433 1.608855 81.810952 -85.150802 -50.809221 -10.444601 3.730899 3.055009 -7.895640 1.074643 -25.226960 -0.931566 0.657747 28.210653 1.108986 7.472006 12.158871 2.428500 0.000000 -89.822299 11.833418 -2.214983 1.108657 2.996833 -8.600786 -22.749364 0.940549 -1.202618 27.434977 -0.717776 -3.366463 6.209887 -1.087800 -0.000000 -96.320100
6.171182 17.191033 1.594635 80.841209 -85.479608 -51.235570 -10.625974 3.966015 2.978319 -7.005512 2.105211 -22.349000 -0.761301 0.627634 24.822974 1.146071 6.807184 19.181030 2.775500 0.000000 -89.099600 11.930779 -2.593543 0.864121 2.886914 -9.912627 -19.624139 0.839796 -1.139142 23.468210 -0.577490 -2.346623 14.137894 -1.053900 0.000001 -97.438700
5.937589 17.461603 1.581456 80.022080 -85.780385 -51.562046 -10.778882 4.145599 2.986845 -6.169598 2.744898 -19.970653 -0.598524 0.590842 21.919790 1.288194 6.279764 25.554456 2.948300 0.000001 -86.838600 12.015167 -2.898573 0.690193 2.732282 -11.066174 -17.188638 0.753077 -1.101405 20.229946 -0.575057 -1.199866 21.639966 -0.622100 -0.000000 -96.922400
5.705542 17.723862 1.569020 79.396802 -86.042820 -51.827345 -10.897181 4.269062 3.075143 -5.441917 2.973374 -18.113316 -0.445840 0.541947 19.608790 1.482917 5.991645 30.936140 3.086700 0.000000 -83.244700 12.079497 -3.115532 0.583563 2.571348 -12.032224 -15.454750 0.686791 -1.066576 17.812895 -0.670787 0.001789 28.247174 0.111600 0.000000 -94.821599
5.476642 17.977399 1.556989 78.984217 -86.262966 -52.073615 -10.978747 4.340898 3.226568 -4.853734 2.805571 -16.762296 -0.299244 0.484980 17.953706 1.686876 6.066026 35.122787 3.353300 0.000000 -79.057900 12.119784 -3.244997 0.530221 2.435830 -12.795870 -14.376547 0.637015 -1.027543 16.230274 -0.815379 1.075890 33.631384 0.931900 0.000000 -91.651299
5.251813 18.221804 1.545071 78.798598 -86.439934 -52.335275 -11.024352 4.368370 3.423902 -4.417809 2.282459 -15.904550 -0.154269 0.427756 16.997438 1.872788 6.567895 38.037441 3.853800 0.000001 -74.652500 12.136795 -3.299422 0.518139 2.347542 -13.348580 -13.895269 0.594045 -0.989920 15.441353 -0.969546 1.787493 37.638844 1.567100 -0.000000 -87.917500
5.032319 18.456606 1.532994 78.892400 -86.575392 -52.697658 -11.036583 4.356325 3.644431 -4.133790 1.473449 -15.503496 -0.009549 0.377318 16.736019 2.030698 7.483863 39.736178 4.607200 0.000000 -70.652100 12.134836 -3.292609 0.531786 2.309600 -13.695295 -13.925013 0.547674 -0.963790 15.355005 -1.113389 1.941655 40.282764 1.790100 0.000000 -84.328600
4.819107 18.681044 1.520599 79.335845 -86.672061 -53.260509 -11.020138 4.307931 3.865552 -3.993844 0.474279 -15.522840 0.131003 0.338317 17.135280 2.159023 8.692664 40.355970 5.524401 -0.000000 -67.254100 12.119678 -3.235848 0.559050 2.313298 -13.850880 -14.382672 0.491902 -0.957052 15.865530 -1.240601 1.466426 41.663433 1.502900 0.000001 -81.294900
4.613104 18.894171 1.507906 80.169776 -86.735455 -54.094414 -10.982106 4.224356 4.066110 -3.982206 -0.604727 -15.922558 0.261217 0.312833 18.120082 2.261896 10.025068 40.113284 6.467801 0.000000 -64.867801 12.095805 -3.137290 0.589877 2.347620 -13.840853 -15.188299 0.426915 -0.973195 16.855103 -1.351494 0.424402 41.927566 0.751400 0.000000 -79.083600
4.414760 19.095140 1.494995 81.386139 -86.773915 -55.221329 -10.932300 4.109403 4.221973 -4.078509 -1.618698 -16.665668 0.371055 0.304597 19.605603 2.338010 11.246429 39.210795 7.251400 -0.000001 -63.179200 12.066187 -3.004981 0.614852 2.401688 -13.710544 -16.265369 0.359685 -1.013070 18.206952 -1.445307 -0.994298 41.226474 -0.292400 0.000000 -77.565100
4.224084 19.283608 1.482070 82.908578 -86.798862 -56.591625 -10.880608 3.967513 4.317705 -4.256719 -2.464661 -17.692627 0.455552 0.315245 21.447848 2.389235 12.204691 37.903408 7.772600 -0.000000 -62.189700 12.030976 -2.847534 0.627254 2.472460 -13.500368 -17.533575 0.299861 -1.073981 19.777046 -1.521883 -2.565723 39.749617 -1.421500 -0.000000 -76.550501
